<svg id="svg" version="1.1" viewBox="0 0 300 300" width="300" height="300" xmlns="http://www.w3.org/2000/svg"><svg xmlns="http://www.w3.org/2000/svg"><defs><clipPath id="clip-1"><rect x="0" y="0" transform="scale(0.14648,0.14648)" width="2048" height="2048" fill="none"/></clipPath></defs><g clip-path="url(#clip-1)" fill="none" fill-rule="nonzero" stroke="none" stroke-width="1" stroke-linecap="butt" stroke-linejoin="miter" stroke-miterlimit="10" stroke-dasharray="" stroke-dashoffset="0" font-family="none" font-weight="none" font-size="none" text-anchor="none" style="mix-blend-mode: normal"><path d="M142.13306,0h15.59253c2.30566,0.69333 4.83691,0.37927 7.20264,0.63994c3.91406,0.43142 7.80469,0.96065 11.68066,1.66277c19.00049,3.39889 37.16309,10.44573 53.48291,20.75114c2.04199,1.30225 6.19629,3.94907 8.03467,5.48672c3.49365,-3.30923 7.00781,-7.08003 10.51465,-10.48008c3.81152,-3.78125 7.43701,-8.65248 13.01221,-3.58748c0.82031,0.74539 1.58789,1.54534 2.37158,2.32917l5.23828,5.24604c5.32471,5.33892 10.66992,10.65718 15.98877,16.00283c1.46777,1.47437 2.47705,2.98389 2.46094,5.16431c-0.02051,2.6874 -3.71631,6.55752 -5.71436,8.10967c-0.9917,1.23896 -2.85498,3.0022 -4.0415,4.18315l-6.52002,6.45776c2.07861,2.48555 4.01953,5.53521 5.77002,8.27373c10.21436,16.27764 17.19727,34.37109 20.56641,53.29072c0.70459,3.88652 1.14404,7.78931 1.61426,11.70645c0.22266,1.84951 0.10547,4.77246 0.6123,6.48237v16.58203c-0.63428,2.43896 -0.64746,7.12354 -0.96973,9.86133c-0.7749,6.375 -1.95117,12.69434 -3.52148,18.92139c-9.67822,37.75195 -33.61816,70.28027 -66.78516,90.74268c-16.04004,9.88916 -33.80713,16.65088 -52.36377,19.92627c-3.4541,0.63135 -6.93018,1.13672 -10.42236,1.51611c-1.49707,0.1626 -5.79785,0.35156 -6.89648,0.73096h-17.8834c-0.94014,-0.34424 -5.91021,-0.62256 -7.32686,-0.78076c-2.88853,-0.3252 -5.76782,-0.72803 -8.63452,-1.20996c-14.67876,-2.44043 -28.9103,-7.06201 -42.22354,-13.70947c-38.14424,-19.05176 -66.39155,-53.41992 -77.69565,-94.53223c-1.79965,-6.6416 -3.17539,-13.39014 -4.1189,-20.20605c-0.22737,-1.7915 -0.40506,-3.58887 -0.53286,-5.38916c-0.09431,-1.40186 -0.17302,-5.11084 -0.62529,-6.30176v-15.70854c0.46715,-1.30796 0.59983,-6.6063 0.77162,-8.32778c0.30941,-3.10063 0.70385,-5.69092 1.21922,-8.78159c3.05342,-18.25474 9.47205,-35.7832 18.92903,-51.69302c20.29336,-34.18843 53.33101,-58.92038 91.85171,-68.76013c7.47847,-1.8985 15.12422,-3.24673 22.80483,-3.96935c1.98721,-0.18697 4.65527,-0.07261 6.55664,-0.63019z" fill="#017296"/><path d="M248.64111,18.0605c3.81152,-3.78125 7.43701,-8.65248 13.01221,-3.58748c0.82031,0.74539 1.58789,1.54534 2.37158,2.32917l5.23828,5.24604c5.32471,5.33892 10.66992,10.65718 15.98877,16.00283c1.46777,1.47437 2.47705,2.98389 2.46094,5.16431c-0.02051,2.6874 -3.71631,6.55752 -5.71436,8.10967c-0.9917,1.23896 -2.85498,3.0022 -4.0415,4.18315l-6.52002,6.45776c-2.20459,1.93989 -4.67285,4.52769 -6.77637,6.6334l-10.87646,10.88774l-15.46729,15.46743c-2.61621,2.61548 -5.55029,5.42944 -8.07861,8.09854c-2.78613,2.77456 -6.01758,5.86509 -8.68652,8.72739c-2.59863,2.42256 -5.29395,5.22202 -7.81641,7.74595l-13.61719,13.62349l-40.76953,40.771l-15.19072,15.18896c-0.82192,0.82031 -5.16064,5.29688 -5.75244,5.71875c-0.55107,-0.71631 -1.90518,-2.00684 -2.59131,-2.68945l-4.77319,-4.75781l-15.75088,-15.7749c-3.36211,-3.1377 -6.64966,-6.86572 -10.04751,-9.9873c0.76523,-0.95654 3.66313,-3.69873 4.63887,-4.67285l10.20132,-10.18652l25.39468,-25.39204c4.53428,-4.53501 9.58506,-9.39697 13.95469,-14.04097c1.13672,-0.97544 3.04834,-2.97935 4.08252,-4.09043c2.46387,-2.12285 6.39111,-6.30835 8.8125,-8.74512c2.8623,-2.80752 6.03516,-5.91841 8.76416,-8.82993c2.42578,-2.07979 6.43213,-6.35068 8.81396,-8.74775c2.85498,-2.80225 6.04688,-5.92544 8.76563,-8.83315c1.87207,-1.59888 4.89258,-4.79839 6.70605,-6.61406l12.59766,-12.60059l12.78662,-12.78179c2.21338,-2.2125 5.4126,-5.2355 7.36523,-7.54336c3.49365,-3.30923 7.00781,-7.08003 10.51465,-10.48008z" fill="#febf43"/><path d="M248.64111,18.0605c2.83008,3.09858 7.03857,7.13013 10.12207,10.11226c-0.9917,0.63926 -6.45703,6.25825 -7.57031,7.37183l-17.9707,17.98477l-74.62793,74.62837l-30.34614,30.3457l-8.48115,8.4668c-1.08193,1.07813 -3.66973,3.54199 -4.47686,4.63623c-3.36211,-3.1377 -6.64966,-6.86572 -10.04751,-9.9873c0.76523,-0.95654 3.66313,-3.69873 4.63887,-4.67285l10.20132,-10.18652l25.39468,-25.39204c4.53428,-4.53501 9.58506,-9.39697 13.95469,-14.04097c1.13672,-0.97544 3.04834,-2.97935 4.08252,-4.09043c2.46387,-2.12285 6.39111,-6.30835 8.8125,-8.74512c2.8623,-2.80752 6.03516,-5.91841 8.76416,-8.82993c2.42578,-2.07979 6.43213,-6.35068 8.81396,-8.74775c2.85498,-2.80225 6.04688,-5.92544 8.76563,-8.83315c1.87207,-1.59888 4.89258,-4.79839 6.70605,-6.61406l12.59766,-12.60059l12.78662,-12.78179c2.21338,-2.2125 5.4126,-5.2355 7.36523,-7.54336c3.49365,-3.30923 7.00781,-7.08003 10.51465,-10.48008z" fill="#fe9301"/><path d="M248.64111,18.0605c3.81152,-3.78125 7.43701,-8.65248 13.01221,-3.58748c0.82031,0.74539 1.58789,1.54534 2.37158,2.32917l5.23828,5.24604c5.32471,5.33892 10.66992,10.65718 15.98877,16.00283c1.46777,1.47437 2.47705,2.98389 2.46094,5.16431c-0.02051,2.6874 -3.71631,6.55752 -5.71436,8.10967c-5.34814,-5.21631 -10.5791,-10.67754 -15.90967,-15.92021c-2.41699,-2.37554 -4.83984,-4.95571 -7.32568,-7.23208c-3.0835,-2.98213 -7.29199,-7.01367 -10.12207,-10.11226z" fill="#014c67"/><path d="M105.24258,161.61914c3.39785,3.12158 6.6854,6.84961 10.04751,9.9873l15.75088,15.7749l4.77319,4.75781c0.68613,0.68262 2.04023,1.97314 2.59131,2.68945c-1.87939,1.70654 -5.96748,5.6748 -7.64883,7.57471c-2.69517,2.71143 -4.7918,4.42676 -8.71245,4.81055c0.02036,1.17627 -0.16597,2.7085 -0.34966,3.87451c-1.42969,8.78027 -6.28345,16.63477 -13.49634,21.84082c-7.31147,5.31592 -16.4584,7.45605 -25.36963,5.93848c-8.83491,-1.51758 -16.70156,-6.49072 -21.8603,-13.82227c-5.17925,-7.34033 -7.20352,-16.44873 -5.62075,-25.29199c1.57017,-8.80664 6.58286,-16.62451 13.93008,-21.72803c7.35762,-5.12988 16.46411,-7.0957 25.28276,-5.45947c2.32544,-2.64258 4.49517,-4.80322 7.02598,-7.2627c1.04854,-0.88916 2.64785,-2.6499 3.65625,-3.68408z" fill="#017296"/><path d="M105.24258,161.61914c3.39785,3.12158 6.6854,6.84961 10.04751,9.9873l15.75088,15.7749l4.77319,4.75781c0.68613,0.68262 2.04023,1.97314 2.59131,2.68945c-1.87939,1.70654 -5.96748,5.6748 -7.64883,7.57471c-2.69517,2.71143 -4.7918,4.42676 -8.71245,4.81055c-4.2709,0.15381 -6.19336,-0.79834 -9.48721,-3.39404c-1.87178,1.93945 -3.78691,3.87012 -5.71611,5.75098c-0.64233,0.62695 -1.79414,1.92188 -2.41831,2.45068c-0.94219,-0.6958 -4.49326,-4.35498 -5.58062,-5.46387c-3.59019,-3.65625 -7.42046,-7.30078 -10.95381,-10.98633c2.26274,-1.66992 5.62339,-5.82422 8.34565,-8.04346c-4.36069,-5.58545 -4.3771,-8.62061 -1.67344,-14.96191c2.32544,-2.64258 4.49517,-4.80322 7.02598,-7.2627c1.04854,-0.88916 2.64785,-2.6499 3.65625,-3.68408z" fill="#014c67"/><path d="M104.42256,212.02148c-0.14941,0.23438 -0.47813,0.63428 -0.66987,0.82471c-3.49307,3.65625 -7.29185,7.83545 -12.8436,7.60254c-1.91528,-0.08057 -10.06553,0.40576 -11.04229,-0.5083c-0.58154,-1.33154 -0.29341,-8.7876 -0.3126,-10.771c-0.06021,-6.21826 4.11284,-9.59033 8.33394,-13.59814c3.53335,3.68555 7.36362,7.33008 10.95381,10.98633c1.08735,1.10889 4.63843,4.76807 5.58062,5.46387z" fill="#feee33"/><path d="M130.75664,202.40332c0.49614,5.00684 -0.18413,10.72266 -1.6374,15.52441c-3.27173,10.76807 -10.67256,19.80176 -20.58516,25.12939c-9.96973,5.34521 -21.65889,6.49512 -32.47925,3.19629c-10.82314,-3.33691 -19.87456,-10.84277 -25.15825,-20.85937c-5.22173,-9.96973 -6.27715,-21.60205 -2.93467,-32.34814c3.38379,-10.81787 10.94341,-19.83984 21.00278,-25.06348c10.08193,-5.20605 21.82559,-6.17139 32.62163,-2.6792c-2.53081,2.45947 -4.70054,4.62012 -7.02598,7.2627c-8.81865,-1.63623 -17.92515,0.32959 -25.28276,5.45947c-7.34722,5.10352 -12.35991,12.92139 -13.93008,21.72803c-1.58276,8.84326 0.4415,17.95166 5.62075,25.29199c5.15874,7.33154 13.02539,12.30469 21.8603,13.82227c8.91123,1.51758 18.05815,-0.62256 25.36963,-5.93848c7.21289,-5.20605 12.06665,-13.06055 13.49634,-21.84082c0.18369,-1.16602 0.37002,-2.69824 0.34966,-3.87451c3.92065,-0.38379 6.01729,-2.09912 8.71245,-4.81055z" fill="#7bb2ce"/><path d="M189.90527,76.91353c-2.74512,-0.55005 -7.40918,0.13491 -9.96973,-0.15762c-3.22412,-0.36826 -18.16113,0.65918 -20.23389,-0.31392c-0.6709,-0.91172 -0.6123,-7.08252 -0.04687,-8.09634c1.23926,-0.55854 8.16211,-0.38159 9.93896,-0.38232l14.03906,0.00029l9.45117,0.0063c1.65088,0.00308 4.00928,-0.05142 5.58691,0.11045c-2.71875,2.90771 -5.91064,6.03091 -8.76562,8.83315z" fill="#7bb2ce"/><path d="M221.55176,111.78047c2.66895,-2.8623 5.90039,-5.95283 8.68652,-8.72739c4.02393,0.27979 8.78174,-0.04702 12.88477,0.06021c2.24561,0.05874 3.97852,-0.14678 6.25195,0.28359c0.35596,2.18613 0.38232,6.05537 -0.00293,8.25073c-2.00977,0.3854 -26.04492,0.52544 -27.82031,0.13286z" fill="#7bb2ce"/><path d="M172.32715,94.49121c-3.50977,-0.70547 -8.78467,0.44824 -12.36768,-0.39492c-1.07227,-0.25225 -0.79102,-7.20659 -0.36182,-8.13413c0.87744,-0.63369 19.49414,-0.51401 21.49365,-0.30088c-2.729,2.91152 -5.90186,6.02241 -8.76416,8.82993z" fill="#7bb2ce"/><path d="M159.43213,107.32676c-0.05273,-0.27158 -0.09521,-0.54507 -0.12744,-0.81987c-0.40723,-3.64541 1.14551,-3.55122 4.20996,-3.27056c-1.03418,1.11108 -2.9458,3.11499 -4.08252,4.09043z" fill="#7bb2ce"/><path d="M142.58657,45.47754c0.76787,0.55781 8.61167,7.86665 8.3978,8.50225c-0.8877,2.64463 -5.22524,5.74131 -7.16558,8.04639c-5.24868,5.48555 -10.99482,10.67344 -16.17627,16.19736c2.10015,3.24023 3.31333,12.271 3.28711,16.33403c-0.0728,11.31416 -4.65249,22.13276 -12.7248,30.06079c-8.03247,7.87163 -18.8543,12.24375 -30.10049,12.16055c-11.42388,-0.10884 -22.32231,-4.81436 -30.23555,-13.05425c-7.73818,-8.0647 -11.98989,-18.85181 -11.83491,-30.02754c0.1897,-11.43018 4.97461,-22.30239 13.275,-30.16289c8.09355,-7.67842 18.89004,-11.85293 30.0438,-11.61636c9.59868,0.19937 18.8458,3.64819 26.23066,9.78296c1.94121,1.60986 3.45396,3.20698 5.18584,5.02178c6.62886,-6.19893 12.84126,-13.07637 19.40654,-19.36143c0.89722,-0.85898 1.34692,-1.25171 2.41084,-1.88364z" fill="#017296"/><path d="M127.64253,78.22354c2.10015,3.24023 3.31333,12.271 3.28711,16.33403c-0.0728,11.31416 -4.65249,22.13276 -12.7248,30.06079c-8.03247,7.87163 -18.8543,12.24375 -30.10049,12.16055c-11.42388,-0.10884 -22.32231,-4.81436 -30.23555,-13.05425c-7.73818,-8.0647 -11.98989,-18.85181 -11.83491,-30.02754c0.1897,-11.43018 4.97461,-22.30239 13.275,-30.16289c8.09355,-7.67842 18.89004,-11.85293 30.0438,-11.61636c9.59868,0.19937 18.8458,3.64819 26.23066,9.78296c1.94121,1.60986 3.45396,3.20698 5.18584,5.02178c-1.36187,1.59902 -4.61118,4.71079 -6.24741,6.25679c-6.64175,-7.38223 -14.12886,-11.70044 -24.24873,-12.25591c-8.91504,-0.48589 -17.65576,2.60317 -24.28594,8.58281c-6.7002,6.01333 -10.70771,14.46343 -11.12432,23.45684c-0.43022,8.92749 2.72285,17.65708 8.75889,24.24902c6.05757,6.67969 14.55249,10.63477 23.56362,10.97065c8.87109,0.35156 17.51821,-2.83652 24.03809,-8.86245c6.68101,-6.09683 10.61191,-14.63672 10.89858,-23.67686c0.11953,-3.51855 -0.31846,-7.03374 -1.29785,-10.41533c0.9041,-1.13027 5.55205,-5.55059 6.81841,-6.80464z" fill="#7bb2ce"/><path d="M142.58657,45.47754c0.76787,0.55781 8.61167,7.86665 8.3978,8.50225c-0.8877,2.64463 -5.22524,5.74131 -7.16558,8.04639c-5.24868,5.48555 -10.99482,10.67344 -16.17627,16.19736c-1.26636,1.25405 -5.91431,5.67437 -6.81841,6.80464c-8.65283,8.35225 -16.97944,17.17983 -25.58906,25.58643c-1.43657,1.40259 -2.73955,2.8749 -4.36392,4.08677c-1.21406,0.90557 -2.24048,0.38584 -3.2625,-0.53188c-1.73994,-1.6314 -3.42568,-3.3627 -5.11069,-5.04785l-9.32476,-9.32944l-7.06157,-7.05981c-1.34956,-1.34736 -3.75,-3.56558 -4.70156,-5.1c1.03081,-1.73086 7.02949,-7.627 8.76328,-8.74834c3.45059,2.27007 17.80723,18.37031 19.47041,18.45659c1.82666,-0.96196 8.3458,-7.77305 10.18403,-9.62461c4.82637,-4.86123 9.92769,-9.82075 14.69399,-14.73662c1.63623,-1.546 4.88555,-4.65776 6.24741,-6.25679c6.62886,-6.19893 12.84126,-13.07637 19.40654,-19.36143c0.89722,-0.85898 1.34692,-1.25171 2.41084,-1.88364z" fill="#feee33"/><path d="M160.94531,179.34521c6.43799,-0.21973 13.88379,-0.04834 20.40234,-0.04834l38.11084,0.00293l18.7207,-0.00293c2.86377,-0.00439 8.58691,-0.19922 11.1958,0.27246c0.26221,1.50439 0.5127,6.66357 -0.0791,8.04932c-0.37939,0.37939 -0.81445,0.35889 -1.36963,0.43799c-6.854,0.1626 -14.26172,0.03223 -21.15234,0.03223l-39.97119,-0.00146l-16.74463,0.00146c-2.10498,0 -8.58545,0.17578 -10.30078,-0.30176c-0.74414,-0.65332 -0.66357,-7.23779 -0.13623,-8.05078c0.42627,-0.36328 0.75879,-0.33105 1.32422,-0.39111z" fill="#7bb2ce"/><path d="M160.979,214.50586c6.30762,-0.23877 13.82813,-0.05273 20.22656,-0.05127l37.7666,0.00146l19.03711,-0.00293c2.93262,-0.00586 8.7334,-0.20361 11.36572,0.27246c0.26221,1.50439 0.51123,6.66211 -0.0791,8.05078c-0.37793,0.37793 -0.80566,0.35742 -1.35791,0.43652c-5.64697,0.13037 -11.66895,0.03223 -17.33789,0.03223l-31.96289,-0.00293l-24.15674,0.00586c-2.51221,0.00146 -13.24365,0.25195 -14.81982,-0.36328c-0.56104,-0.92871 -0.58447,-7.21289 -0.0498,-8.00977c0.44092,-0.33984 0.80713,-0.31201 1.36816,-0.36914z" fill="#7bb2ce"/><path d="M160.97754,196.92773c5.05225,-0.19922 10.93213,-0.05273 16.05469,-0.05273l29.77148,-0.00146l15.54785,-0.00879c2.56055,0 7.18945,-0.15674 9.4541,0.29883c0.26367,1.50293 0.49219,6.68848 -0.08936,8.0332c-0.375,0.37793 -0.79541,0.35889 -1.34619,0.43799c-3.39404,0.13184 -7.4209,0.03223 -10.86182,0.03223l-20.63965,0.00293l-24.21973,0.00146c-2.01855,-0.00146 -13.73291,0.19189 -14.92383,-0.30322c-0.63281,-1.01807 -0.66064,-6.99902 -0.15234,-8.04492c0.41016,-0.37354 0.83203,-0.33691 1.40479,-0.39551z" fill="#7bb2ce"/></g></svg></svg>
