<svg id="svg" version="1.1" viewBox="0 0 300 300" width="300" height="300" xmlns="http://www.w3.org/2000/svg"><svg xmlns="http://www.w3.org/2000/svg"><defs><clipPath id="clip-1"><rect x="0" y="0" transform="scale(0.14648,0.14648)" width="2048" height="2048" fill="none"/></clipPath></defs><g clip-path="url(#clip-1)" fill="none" fill-rule="nonzero" stroke="none" stroke-width="1" stroke-linecap="butt" stroke-linejoin="miter" stroke-miterlimit="10" stroke-dasharray="" stroke-dashoffset="0" font-family="none" font-weight="none" font-size="none" text-anchor="none" style="mix-blend-mode: normal"><path d="M61.4417,109.46558c1.69863,-0.04277 3.27173,0.62476 4.49795,1.78755c4.41665,4.21772 8.69458,8.60098 13.02363,12.9126c1.94839,1.94062 4.93374,4.37402 5.09429,7.25786c0.07573,1.575 -0.47227,3.11646 -1.52534,4.29009c-1.7811,1.99043 -5.04668,2.57827 -7.2,1.03623c-2.81543,-2.01636 -5.25659,-4.99263 -7.83296,-7.36099c0.22661,1.61455 0.04878,6.52617 0.06431,8.52114c-0.07236,4.10552 0.12056,8.24854 -0.06694,12.34775c-0.15762,3.44531 -1.95454,5.10498 -5.10029,5.96777c-0.12437,0.00732 -0.24888,0.01318 -0.37339,0.01611c-2.78701,0.06006 -5.52759,-1.83252 -5.94111,-4.6875c-0.39258,-2.71289 -0.24316,-5.55 -0.24272,-8.29761c-0.01699,-4.62378 0.00029,-9.24771 0.05186,-13.87134c-2.39253,2.3061 -4.60107,4.80483 -7.16528,6.92754c-3.44648,2.85308 -8.52935,0.78149 -9.31406,-3.50933c-0.66255,-3.62168 2.60874,-6.22104 4.90913,-8.52773l5.4416,-5.44819l5.11846,-5.11289c2.24209,-2.23696 3.2666,-3.80874 6.56089,-4.24907z" fill="#000000"/><path d="M189.2124,61.84878c2.77881,-0.38892 5.96924,1.57544 6.38818,4.41929c0.4043,2.73999 0.24756,5.79653 0.24463,8.57666l0.01465,13.66025c2.48877,-2.25117 6.23877,-7.09556 9.2124,-7.92114c1.45898,-0.41748 3.02637,-0.21475 4.33154,0.5603c2.64844,1.57192 3.88477,4.98296 2.24268,7.7376c-1.08691,1.82505 -3.09375,3.60146 -4.61865,5.12959l-5.58984,5.59526c-2.12256,2.12153 -7.53369,8.16782 -10.15576,8.77134c-2.49902,0.56221 -4.2041,-0.33794 -5.93994,-2.02646c-4.59082,-4.46631 -9.07324,-9.05156 -13.61865,-13.56504c-1.16016,-1.1521 -2.43311,-2.3814 -3.33252,-3.74897c-1.35498,-2.06133 -0.78076,-5.19375 0.88477,-6.9271c1.04883,-1.09541 2.49902,-1.71738 4.01514,-1.72324c3.13477,0.0082 5.18701,2.5002 7.22607,4.55068c1.19531,1.20029 2.39941,2.39019 3.61523,3.56938l-0.00439,-13.73086c-0.00293,-5.03716 -1.24219,-11.61211 5.08447,-12.92754z" fill="#000000"/><path d="M61.30034,168.07178c3.17461,-0.21826 5.93101,2.16504 6.17241,5.33789c0.24141,3.17285 -2.12256,5.9458 -5.29365,6.20947c-3.20317,0.26807 -6.01084,-2.12549 -6.25474,-5.33057c-0.2439,-3.20508 2.16929,-5.99561 5.37598,-6.2168z" fill="#000000"/><path d="M189.02051,38.44028c3.15381,-0.5354 6.14355,1.58921 6.67529,4.74375c0.5332,3.15469 -1.59521,6.14268 -4.75049,6.67134c-3.14941,0.52778 -6.13184,-1.59624 -6.66357,-4.74595c-0.53174,-3.14971 1.58936,-6.13433 4.73877,-6.66914z" fill="#000000"/><path d="M281.26172,65.821c2.04785,-0.41089 4.15869,0.31333 5.52393,1.89507c1.36377,1.58174 1.771,3.77578 1.06348,5.7416c-0.70605,1.96567 -2.41699,3.39844 -4.47656,3.74912c-3.12012,0.5313 -6.08789,-1.54087 -6.66504,-4.65278c-0.57715,-3.11191 1.45166,-6.1106 4.5542,-6.73301z" fill="#000000"/><path d="M148.83984,183.00879c2.04785,-0.41162 4.15869,0.31348 5.52393,1.89404c1.36377,1.58203 1.771,3.77637 1.06348,5.74219c-0.70605,1.96582 -2.41699,3.39844 -4.47656,3.74854c-3.12012,0.53174 -6.08833,-1.53955 -6.66519,-4.65234c-0.577,-3.11133 1.45151,-6.10986 4.55435,-6.73242z" fill="#000000"/><path d="M60.6019,253.31396c3.14502,-0.60791 6.1853,1.45459 6.78428,4.60107c0.59897,3.14648 -1.47114,6.18164 -4.61938,6.77197c-3.13652,0.58887 -6.15762,-1.47217 -6.75425,-4.60693c-0.59678,-3.13477 1.45605,-6.16113 4.58936,-6.76611z" fill="#000000"/><path d="M193.02393,206.43896c3.14502,-0.60791 6.18457,1.45459 6.78369,4.60107c0.59912,3.14648 -1.4707,6.18164 -4.61865,6.77197c-3.13623,0.58887 -6.1582,-1.47217 -6.75439,-4.60693c-0.59619,-3.13477 1.45605,-6.16113 4.58936,-6.76611z" fill="#000000"/><path d="M104.73003,253.32275c3.15659,-0.62109 6.21387,1.45166 6.80537,4.61279c0.59165,3.1626 -1.50938,6.20068 -4.6771,6.76172c-3.12583,0.55518 -6.11484,-1.51318 -6.69873,-4.6333c-0.58374,-3.12012 1.45562,-6.12891 4.57046,-6.74121z" fill="#000000"/><path d="M237.15527,112.69658c3.15674,-0.61919 6.2124,1.4543 6.80273,4.61602c0.59033,3.16157 -1.51025,6.19819 -4.67725,6.75996c-3.12744,0.55474 -6.11719,-1.51377 -6.7002,-4.63521c-0.58301,-3.12144 1.45898,-6.12949 4.57471,-6.74077z" fill="#000000"/><path d="M279.99316,0h4.67432c6.06006,1.84047 9.70166,3.2087 13.14844,9.23317c1.31543,2.30125 1.46631,4.08795 2.18408,6.47068v3.86865c-0.39258,1.35894 -0.76758,2.98066 -1.25391,4.28013c-1.45312,3.84434 -4.22607,7.04678 -7.82227,9.0356c-5.35254,2.99106 -10.49268,2.76108 -16.07227,0.59971c-1.7417,1.6478 -3.45264,3.35391 -5.13721,5.06118c-5.14893,5.21616 -10.42529,10.33213 -15.53613,15.58477c1.84277,5.3146 2.46533,9.92812 -0.14209,15.23789c-2.10352,4.2728 -5.82861,7.52637 -10.34473,9.03545c-1.89844,0.62197 -3.89355,0.87422 -5.87842,1.0251c-1.40186,3.0041 -3.01904,7.57969 -4.24951,10.777l-7.20703,18.70005l-20.79053,53.94316c3.88623,3.94189 6.11426,7.68896 6.07471,13.45313c-0.03369,4.68018 -1.93945,9.15088 -5.29395,12.41455c-3.23437,3.15088 -7.82227,5.11963 -12.35889,5.03467c-4.75049,-0.08936 -9.26953,-2.07129 -12.55371,-5.50342c-3.33545,-3.47314 -4.91895,-7.86328 -4.81641,-12.6665c0.07031,-3.32666 1.0957,-5.88574 2.58984,-8.77881c-7.87646,-9.71631 -15.53906,-19.70654 -23.44043,-29.37598c-2.58545,0.56265 -4.27295,0.91758 -6.97412,0.89604l-31.02817,72.26265c3.65273,3.72217 5.65181,7.70215 5.58369,13.03271c-0.01743,4.66699 -1.9251,9.12744 -5.2875,12.36475c-3.36797,3.31348 -7.9415,5.1123 -12.66475,4.979c-4.63403,-0.12598 -9.03179,-2.07275 -12.2395,-5.41992c-2.11655,-2.23682 -3.81167,-5.22803 -4.36523,-8.25879c-0.15059,-0.82471 -0.26001,-3.12305 -1.05674,-3.49658c-3.65845,-1.71387 -8.4605,-2.4624 -12.08364,-4.05469c-4.23911,4.29932 -7.46865,6.5625 -13.90166,6.82764c-1.05864,0.04248 -2.47559,-0.09521 -3.50859,-0.33984c-5.56377,8.74658 -11.18511,18.48926 -16.55669,27.42188l-6.92812,11.52539c-1.02773,1.71094 -2.69619,4.31396 -3.59268,6.03662c1.31602,1.99951 1.98984,3.0542 2.97715,5.27344c4.10288,0.23584 9.5436,0.07764 13.74697,0.07764l24.88711,-0.00146l71.34126,-0.00732l0.03472,-44.77734l-0.01421,-12.56543c-0.00396,-3.20654 -0.60571,-8.9458 1.78022,-11.25293c1.1332,-1.07812 2.64932,-1.65674 4.21084,-1.60986c1.65967,0.06738 3.22266,0.80713 4.32715,2.04932c1.94238,2.21045 1.41943,8.57373 1.4165,11.521v13.90137l-0.00732,42.71777c10.69043,0.05566 21.78662,-0.16113 32.41699,0.05127c-0.14648,-1.83252 -0.01318,-5.02881 -0.01172,-6.9873v-14.24707l-0.00293,-12.6665c0,-4.65967 -1.16455,-12.61377 5.56055,-12.88916c1.59082,-0.06006 3.14063,0.50977 4.3125,1.58496c1.69482,1.58057 1.85303,3.58301 1.84863,5.7627c-0.0293,11.8125 -0.01758,23.62646 -0.00586,35.44043c0.00146,1.29932 0.01611,2.59863 -0.04541,3.89795c10.37402,0.33252 21.95361,0.04395 32.41846,0.08936l0.03809,-90.74854l-0.00293,-29.22949l-0.00879,-9.23437c-0.00146,-1.88672 -0.00879,-3.74033 0.08936,-5.60244c0.28418,-5.4186 6.26367,-7.53296 10.021,-3.90454c2.25439,2.17646 1.65381,7.64736 1.64941,10.64517l-0.00879,11.47266l0.00146,36.68115l0.00146,52.60254l0.00439,17.14746c0.00146,2.79053 0.09668,6.25488 -0.00879,9c-0.01465,0.36914 -0.03662,0.73975 -0.06592,1.10889c10.4707,0.19775 21.97998,0.16846 32.47266,0.04102l0.03369,-125.54883l-0.00146,-37.30444l-0.00732,-11.85308c-0.00146,-2.35269 -0.03809,-4.68633 0.08203,-7.03726c0.16699,-3.27261 2.53564,-5.75962 5.89453,-5.64243c1.57178,0.04204 3.06006,0.71016 4.13672,1.85581c2.27051,2.44761 1.62744,8.26099 1.61865,11.51792l-0.00732,12.08716v39.44663l0.00146,122.47705c5.20313,-0.03955 9.69727,-0.9375 11.71143,5.03174v1.68604c-1.33594,3.49951 -2.74512,4.93506 -6.62695,5.02588c-2.31006,0.05566 -4.6333,0.04248 -6.94629,0.04248h-12.25342l-37.14404,-0.00293l-139.8019,-0.00146l-43.1439,-0.00146l-13.12339,0.01172c-1.76616,0.00293 -5.13047,0.10986 -6.78047,-0.06152c-2.27593,4.92627 -4.73042,8.10938 -10.02393,10.43994c-0.82251,0.36182 -3.22075,0.85693 -3.83232,1.28174h-5.02017c-1.8114,-0.57861 -3.53834,-0.97412 -5.27146,-1.78418c-4.06972,-1.89844 -7.24182,-5.30566 -8.84637,-9.50098c-0.44854,-1.17041 -0.66658,-2.60742 -1.08599,-3.72949l-0.09941,-0.26074v-4.771c0.45591,-0.8877 0.75478,-2.43311 1.09573,-3.41309c1.87141,-5.38477 6.15732,-9.43945 11.66438,-10.96582c3.01421,-0.83496 5.26392,-0.69727 8.34946,-0.41895c2.04551,-3.67676 4.7146,-7.86768 6.90381,-11.50635l13.19092,-21.9375c2.11377,-3.51562 5.05474,-8.08887 6.90278,-11.60156c-2.21323,-2.97363 -3.44224,-5.64258 -3.82529,-9.37646c-0.46919,-4.63037 0.92153,-9.25928 3.86616,-12.86426c3.07515,-3.73242 7.20674,-5.89014 12.0189,-6.33252c4.67212,-0.40869 9.31377,1.06641 12.89326,4.0957c4.10039,3.48193 5.72505,7.61426 6.17432,12.83643c3.8584,1.49268 8.70601,2.94287 12.69844,4.20264l0.66519,-0.69727c4.39219,-4.57178 8.10586,-5.99707 14.48115,-6.13037c0.32695,-1.12939 2.11216,-5.04199 2.67437,-6.34863l5.66572,-13.17041l14.72065,-34.25977c2.55601,-5.94976 5.54663,-12.48267 7.87207,-18.45176c-2.02852,-2.52876 -3.27114,-3.54375 -4.47188,-6.85664c-1.61016,-4.47993 -1.35425,-9.41865 0.71001,-13.7083c1.97124,-4.19736 5.56787,-7.41021 9.96021,-8.89746c4.45957,-1.52871 9.34629,-1.21128 13.5709,0.88184c4.15283,2.03394 7.32129,5.64302 8.79932,10.02466c1.89258,5.61343 0.87744,9.91436 -1.63037,14.97715c0.65918,1.00488 2.27051,2.9061 3.06006,3.89795l5.97656,7.49604c4.51758,5.66631 9.72949,12.5833 14.40234,18.00029c2.29541,-0.43213 3.92285,-0.67969 6.22998,-0.93018c1.86182,-4.49561 3.64746,-9.34131 5.40674,-13.90254l9.51563,-24.68569c5.6792,-14.73149 11.83594,-30.02915 17.24707,-44.80811c-1.59521,-1.97505 -2.85791,-2.8894 -4.12354,-5.377c-2.0874,-4.10054 -2.44043,-9.10444 -1.03418,-13.46909c1.43701,-4.4064 4.55566,-8.06748 8.67627,-10.1874c5.63818,-2.83696 10.01367,-2.09063 15.63428,-0.25444c1.44434,-1.75137 4.26855,-4.30459 5.93262,-6.03105c4.71387,-4.89478 9.96973,-9.70708 14.61475,-14.63979c-0.06445,-0.20859 -0.17285,-0.51094 -0.24902,-0.71455c-1.83105,-4.86387 -1.81055,-9.96166 0.51855,-14.69858c1.8252,-3.77735 4.98633,-6.74391 8.87109,-8.32608c1.35059,-0.53597 2.95605,-0.9264 4.36377,-1.40469z" fill="#000000"/><path d="M61.027,203.25732c3.15293,-0.38232 6.02183,1.85596 6.41997,5.00684c0.39814,3.15088 -1.82432,6.03076 -4.97314,6.44531c-3.17168,0.41748 -6.07749,-1.8252 -6.47856,-4.99951c-0.40093,-3.17285 1.85596,-6.06738 5.03174,-6.45264z" fill="#f18481"/><path d="M237.36621,56.02368c3.1582,-0.50771 6.12744,1.65059 6.61816,4.81172c0.49072,3.16113 -1.68311,6.11851 -4.8457,6.59326c-3.14062,0.47109 -6.07178,-1.68325 -6.55957,-4.82095c-0.48779,-3.13784 1.65088,-6.08013 4.78711,-6.58403z" fill="#f18481"/><path d="M104.90933,217.74609c3.16099,-0.52588 6.14561,1.62305 6.64746,4.78857c0.50186,3.16553 -1.67139,6.1333 -4.84028,6.60938c-3.13403,0.47314 -6.06211,-1.67139 -6.5584,-4.80176c-0.49644,-3.13037 1.6248,-6.07471 4.75122,-6.59619z" fill="#68cbef"/><path d="M193.40479,170.44922c3.12744,-0.40283 6,1.78125 6.44824,4.90283c0.44824,3.12158 -1.69336,6.0249 -4.80908,6.51855c-2.05518,0.32666 -4.12793,-0.48047 -5.42285,-2.11084c-1.29346,-1.63037 -1.60986,-3.83057 -0.82617,-5.75977c0.78369,-1.92773 2.54443,-3.28564 4.60986,-3.55078z" fill="#68cbef"/><path d="M149.01123,115.03198c3.11719,-0.54492 6.08936,1.5271 6.65771,4.64019c0.56836,3.11309 -1.48242,6.10122 -4.59082,6.69199c-3.14062,0.59707 -6.16772,-1.47905 -6.7415,-4.6248c-0.57393,-3.14575 1.52461,-6.15674 4.67461,-6.70737z" fill="#f18481"/><path d="M16.58921,276.75c3.11719,-0.54346 6.09009,1.52783 6.65801,4.64063c0.56777,3.11279 -1.48213,6.10107 -4.59082,6.69287c-3.1415,0.59619 -6.1679,-1.47949 -6.74172,-4.62598c-0.57382,-3.14502 1.52464,-6.15674 4.67454,-6.70752z" fill="#f18481"/><path d="M281.44189,11.90653c3.11572,-0.5394 6.08203,1.53243 6.64893,4.64225c0.56689,3.10972 -1.47949,6.09507 -4.5835,6.68892c-3.14355,0.60132 -6.17432,-1.47554 -6.74707,-4.62407c-0.57422,-3.14854 1.5293,-6.16096 4.68164,-6.70709z" fill="#f18481"/></g></svg></svg>
